<svg width="512" height="512" viewBox="0 0 512 512" fill="none" xmlns="http://www.w3.org/2000/svg">
  <rect width="512" height="512" rx="96" fill="#EFE4D6"/>
  <path d="M112 300C108 232 150 158 222 150C204 214 200 280 212 342C192 354 168 360 144 356C128 350 116 330 112 300Z" fill="#2F5D3C"/>
  <path d="M240 156C316 150 388 220 392 296C396 336 372 360 336 364C304 366 272 352 248 326C234 286 232 222 240 156Z" fill="#87A878"/>
  <path d="M302 196C336 210 364 246 360 286C358 306 348 318 334 328C316 340 294 344 272 336C300 306 316 256 302 196Z" fill="#E9F0E4"/>
  <path d="M252 116C240 116 232 126 232 138V198C232 208 226 216 216 220C198 228 188 244 188 264V360C188 380 204 396 224 396H288C308 396 324 380 324 360V264C324 244 314 228 296 220C286 216 280 208 280 198V138C280 126 272 116 260 116H252Z" fill="#EA762A"/>
  <rect x="230" y="80" width="12" height="72" rx="6" fill="#EA762A"/>
  <rect x="250" y="80" width="12" height="72" rx="6" fill="#EA762A"/>
  <rect x="270" y="80" width="12" height="72" rx="6" fill="#EA762A"/>
  <rect x="290" y="80" width="12" height="72" rx="6" fill="#EA762A"/>
</svg>
